{
	"asset":{
		"generator":"Khronos glTF Blender I/O v4.1.62",
		"version":"2.0"
	},
	"extensionsUsed":[
		"KHR_materials_specular"
	],
	"scene":0,
	"scenes":[
		{
			"name":"Scene",
			"nodes":[
				0,
				1,
				2,
				3,
				4
			]
		}
	],
	"nodes":[
		{
			"mesh":0,
			"name":"Room"
		},
		{
			"mesh":1,
			"name":"Furniture",
			"translation":[
				-0.35102808475494385,
				-0.6840358376502991,
				0.8882447481155396
			]
		},
		{
			"mesh":2,
			"name":"Items1",
			"translation":[
				-0.25832074880599976,
				-0.43194952607154846,
				0.5141428709030151
			]
		},
		{
			"mesh":3,
			"name":"Plane",
			"translation":[
				-3.3780343532562256,
				-0.8423906564712524,
				2.694397211074829
			]
		},
		{
			"mesh":4,
			"name":"Plane.001",
			"rotation":[
				0.006742323283106089,
				-0.005871206056326628,
				-0.03405191749334335,
				0.9993801116943359
			],
			"translation":[
				-3.1391167640686035,
				-0.45406949520111084,
				2.975358486175537
			]
		}
	],
	"materials":[
		{
			"alphaMode":"BLEND",
			"doubleSided":true,
			"extensions":{
				"KHR_materials_specular":{
					"specularFactor":0
				}
			},
			"name":"WallsRoofFloorExtras.001",
			"pbrMetallicRoughness":{
				"baseColorTexture":{
					"index":0
				},
				"metallicFactor":0,
				"roughnessFactor":0.4000000059604645
			}
		},
		{
			"doubleSided":true,
			"name":"Cabet_Table.001",
			"pbrMetallicRoughness":{
				"baseColorTexture":{
					"index":1
				},
				"metallicFactor":0,
				"roughnessFactor":0.5
			}
		},
		{
			"alphaMode":"BLEND",
			"doubleSided":true,
			"extensions":{
				"KHR_materials_specular":{
					"specularFactor":0
				}
			},
			"name":"LivingRoom.001",
			"pbrMetallicRoughness":{
				"baseColorTexture":{
					"index":2
				},
				"metallicFactor":0,
				"roughnessFactor":0
			}
		},
		{
			"alphaMode":"BLEND",
			"doubleSided":true,
			"extensions":{
				"KHR_materials_specular":{
					"specularFactor":0
				}
			},
			"name":"LivingRoom.Alt.001",
			"pbrMetallicRoughness":{
				"baseColorTexture":{
					"index":3
				},
				"metallicFactor":0,
				"roughnessFactor":0
			}
		},
		{
			"alphaMode":"BLEND",
			"doubleSided":true,
			"extensions":{
				"KHR_materials_specular":{
					"specularFactor":0
				}
			},
			"name":"LivingRoomLamp.001",
			"pbrMetallicRoughness":{
				"baseColorTexture":{
					"index":4
				},
				"metallicFactor":0,
				"roughnessFactor":0
			}
		},
		{
			"alphaMode":"BLEND",
			"doubleSided":true,
			"extensions":{
				"KHR_materials_specular":{
					"specularFactor":0
				}
			},
			"name":"Chair.001",
			"pbrMetallicRoughness":{
				"baseColorTexture":{
					"index":5
				},
				"metallicFactor":0,
				"roughnessFactor":0.5
			}
		},
		{
			"alphaMode":"BLEND",
			"doubleSided":true,
			"extensions":{
				"KHR_materials_specular":{
					"specularFactor":0
				}
			},
			"name":"Table Stuff.001",
			"pbrMetallicRoughness":{
				"baseColorTexture":{
					"index":6
				},
				"metallicFactor":0,
				"roughnessFactor":0.5
			}
		},
		{
			"alphaMode":"BLEND",
			"doubleSided":true,
			"extensions":{
				"KHR_materials_specular":{
					"specularFactor":0
				}
			},
			"name":"OldLady.001",
			"pbrMetallicRoughness":{
				"baseColorTexture":{
					"index":7
				},
				"metallicFactor":0,
				"roughnessFactor":0
			}
		}
	],
	"meshes":[
		{
			"name":"Cube",
			"primitives":[
				{
					"attributes":{
						"POSITION":0,
						"NORMAL":1,
						"TEXCOORD_0":2
					},
					"indices":3,
					"material":0
				}
			]
		},
		{
			"name":"Cube.003",
			"primitives":[
				{
					"attributes":{
						"POSITION":4,
						"NORMAL":5,
						"TEXCOORD_0":6
					},
					"indices":7,
					"material":1
				},
				{
					"attributes":{
						"POSITION":8,
						"NORMAL":9,
						"TEXCOORD_0":10
					},
					"indices":11,
					"material":2
				},
				{
					"attributes":{
						"POSITION":12,
						"NORMAL":13,
						"TEXCOORD_0":14
					},
					"indices":15,
					"material":3
				},
				{
					"attributes":{
						"POSITION":16,
						"NORMAL":17,
						"TEXCOORD_0":18
					},
					"indices":19,
					"material":4
				},
				{
					"attributes":{
						"POSITION":20,
						"NORMAL":21,
						"TEXCOORD_0":22
					},
					"indices":23,
					"material":5
				}
			]
		},
		{
			"name":"Plane.002",
			"primitives":[
				{
					"attributes":{
						"POSITION":24,
						"NORMAL":25,
						"TEXCOORD_0":26
					},
					"indices":27,
					"material":0
				},
				{
					"attributes":{
						"POSITION":28,
						"NORMAL":29,
						"TEXCOORD_0":30
					},
					"indices":31,
					"material":2
				},
				{
					"attributes":{
						"POSITION":32,
						"NORMAL":33,
						"TEXCOORD_0":34
					},
					"indices":35,
					"material":3
				},
				{
					"attributes":{
						"POSITION":36,
						"NORMAL":37,
						"TEXCOORD_0":38
					},
					"indices":39,
					"material":6
				}
			]
		},
		{
			"name":"Plane.005",
			"primitives":[
				{
					"attributes":{
						"POSITION":40,
						"NORMAL":41,
						"TEXCOORD_0":42
					},
					"indices":43,
					"material":7
				}
			]
		},
		{
			"name":"Plane.006",
			"primitives":[
				{
					"attributes":{
						"POSITION":44,
						"NORMAL":45,
						"TEXCOORD_0":46
					},
					"indices":47,
					"material":7
				}
			]
		}
	],
	"textures":[
		{
			"sampler":0,
			"source":0
		},
		{
			"sampler":0,
			"source":1
		},
		{
			"sampler":0,
			"source":2
		},
		{
			"sampler":0,
			"source":2
		},
		{
			"sampler":0,
			"source":2
		},
		{
			"sampler":0,
			"source":3
		},
		{
			"sampler":0,
			"source":4
		},
		{
			"sampler":0,
			"source":5
		}
	],
	"images":[
		{
			"mimeType":"image/png",
			"name":"WallsFloorRoofExtras",
			"uri":"WallsFloorRoofExtras.png"
		},
		{
			"mimeType":"image/png",
			"name":"Table_Cabet_tex",
			"uri":"Table_Cabet_tex.png"
		},
		{
			"mimeType":"image/png",
			"name":"LivingRoom",
			"uri":"LivingRoom.png"
		},
		{
			"mimeType":"image/png",
			"name":"Chair",
			"uri":"Chair.png"
		},
		{
			"mimeType":"image/png",
			"name":"TableStuff",
			"uri":"TableStuff.png"
		},
		{
			"mimeType":"image/png",
			"name":"OldLady_Texture",
			"uri":"OldLady_Texture.png"
		}
	],
	"accessors":[
		{
			"bufferView":0,
			"componentType":5126,
			"count":110,
			"max":[
				1.2096664905548096,
				1.1732350587844849,
				5.7029008865356445
			],
			"min":[
				-3.6502089500427246,
				-1,
				-1
			],
			"type":"VEC3"
		},
		{
			"bufferView":1,
			"componentType":5126,
			"count":110,
			"type":"VEC3"
		},
		{
			"bufferView":2,
			"componentType":5126,
			"count":110,
			"type":"VEC2"
		},
		{
			"bufferView":3,
			"componentType":5123,
			"count":210,
			"type":"SCALAR"
		},
		{
			"bufferView":4,
			"componentType":5126,
			"count":641,
			"max":[
				0.4612467885017395,
				0.252086341381073,
				0.25655800104141235
			],
			"min":[
				-0.2758321166038513,
				-0.3159332871437073,
				-1.0047619342803955
			],
			"type":"VEC3"
		},
		{
			"bufferView":5,
			"componentType":5126,
			"count":641,
			"type":"VEC3"
		},
		{
			"bufferView":6,
			"componentType":5126,
			"count":641,
			"type":"VEC2"
		},
		{
			"bufferView":7,
			"componentType":5123,
			"count":1440,
			"type":"SCALAR"
		},
		{
			"bufferView":8,
			"componentType":5126,
			"count":1116,
			"max":[
				1.5710515975952148,
				1.700610637664795,
				4.856738567352295
			],
			"min":[
				-1.8711639642715454,
				-0.33629220724105835,
				-1.889014720916748
			],
			"type":"VEC3"
		},
		{
			"bufferView":9,
			"componentType":5126,
			"count":1116,
			"type":"VEC3"
		},
		{
			"bufferView":10,
			"componentType":5126,
			"count":1116,
			"type":"VEC2"
		},
		{
			"bufferView":11,
			"componentType":5123,
			"count":1866,
			"type":"SCALAR"
		},
		{
			"bufferView":12,
			"componentType":5126,
			"count":1077,
			"max":[
				1.6208548545837402,
				1.8626868724822998,
				4.856738567352295
			],
			"min":[
				-1.903016448020935,
				-0.39266616106033325,
				-1.8280229568481445
			],
			"type":"VEC3"
		},
		{
			"bufferView":13,
			"componentType":5126,
			"count":1077,
			"type":"VEC3"
		},
		{
			"bufferView":14,
			"componentType":5126,
			"count":1077,
			"type":"VEC2"
		},
		{
			"bufferView":15,
			"componentType":5123,
			"count":2052,
			"type":"SCALAR"
		},
		{
			"bufferView":16,
			"componentType":5126,
			"count":84,
			"max":[
				0.21382100880146027,
				1.879962682723999,
				-0.28763383626937866
			],
			"min":[
				-0.02338487096130848,
				1.2417106628417969,
				-0.5228356719017029
			],
			"type":"VEC3"
		},
		{
			"bufferView":17,
			"componentType":5126,
			"count":84,
			"type":"VEC3"
		},
		{
			"bufferView":18,
			"componentType":5126,
			"count":84,
			"type":"VEC2"
		},
		{
			"bufferView":19,
			"componentType":5123,
			"count":126,
			"type":"SCALAR"
		},
		{
			"bufferView":20,
			"componentType":5126,
			"count":1368,
			"max":[
				0.6570505499839783,
				0.3665704131126404,
				0.5377271771430969
			],
			"min":[
				-0.5033316016197205,
				-0.31144922971725464,
				-1.196779489517212
			],
			"type":"VEC3"
		},
		{
			"bufferView":21,
			"componentType":5126,
			"count":1368,
			"type":"VEC3"
		},
		{
			"bufferView":22,
			"componentType":5126,
			"count":1368,
			"type":"VEC2"
		},
		{
			"bufferView":23,
			"componentType":5123,
			"count":2376,
			"type":"SCALAR"
		},
		{
			"bufferView":24,
			"componentType":5126,
			"count":2682,
			"max":[
				1.4954841136932373,
				1.522348403930664,
				5.253668308258057
			],
			"min":[
				-1.9731131792068481,
				-0.5727496147155762,
				-1.5343363285064697
			],
			"type":"VEC3"
		},
		{
			"bufferView":25,
			"componentType":5126,
			"count":2682,
			"type":"VEC3"
		},
		{
			"bufferView":26,
			"componentType":5126,
			"count":2682,
			"type":"VEC2"
		},
		{
			"bufferView":27,
			"componentType":5123,
			"count":5175,
			"type":"SCALAR"
		},
		{
			"bufferView":28,
			"componentType":5126,
			"count":296,
			"max":[
				-0.6640447974205017,
				0.3816661238670349,
				5.201043605804443
			],
			"min":[
				-3.3091373443603516,
				-0.5591408014297485,
				2.6876745223999023
			],
			"type":"VEC3"
		},
		{
			"bufferView":29,
			"componentType":5126,
			"count":296,
			"type":"VEC3"
		},
		{
			"bufferView":30,
			"componentType":5126,
			"count":296,
			"type":"VEC2"
		},
		{
			"bufferView":31,
			"componentType":5123,
			"count":444,
			"type":"SCALAR"
		},
		{
			"bufferView":32,
			"componentType":5126,
			"count":58,
			"max":[
				-0.24963414669036865,
				0.30577221512794495,
				4.0185089111328125
			],
			"min":[
				-1.8653745651245117,
				0.14980971813201904,
				-0.07947087287902832
			],
			"type":"VEC3"
		},
		{
			"bufferView":33,
			"componentType":5126,
			"count":58,
			"type":"VEC3"
		},
		{
			"bufferView":34,
			"componentType":5126,
			"count":58,
			"type":"VEC2"
		},
		{
			"bufferView":35,
			"componentType":5123,
			"count":114,
			"type":"SCALAR"
		},
		{
			"bufferView":36,
			"componentType":5126,
			"count":1490,
			"max":[
				1.3908064365386963,
				0.2574218809604645,
				5.085310459136963
			],
			"min":[
				-1.823117971420288,
				0,
				-0.3642594516277313
			],
			"type":"VEC3"
		},
		{
			"bufferView":37,
			"componentType":5126,
			"count":1490,
			"type":"VEC3"
		},
		{
			"bufferView":38,
			"componentType":5126,
			"count":1490,
			"type":"VEC2"
		},
		{
			"bufferView":39,
			"componentType":5123,
			"count":2376,
			"type":"SCALAR"
		},
		{
			"bufferView":40,
			"componentType":5126,
			"count":1044,
			"max":[
				0.28737133741378784,
				1.2943718433380127,
				0.29673337936401367
			],
			"min":[
				-0.25790056586265564,
				-0.16048893332481384,
				-0.29673337936401367
			],
			"type":"VEC3"
		},
		{
			"bufferView":41,
			"componentType":5126,
			"count":1044,
			"type":"VEC3"
		},
		{
			"bufferView":42,
			"componentType":5126,
			"count":1044,
			"type":"VEC2"
		},
		{
			"bufferView":43,
			"componentType":5123,
			"count":1584,
			"type":"SCALAR"
		},
		{
			"bufferView":44,
			"componentType":5126,
			"count":6,
			"max":[
				0.3107077479362488,
				0.22411787509918213,
				0.038980066776275635
			],
			"min":[
				-0.3107077181339264,
				-0.22411786019802094,
				-0.03898009657859802
			],
			"type":"VEC3"
		},
		{
			"bufferView":45,
			"componentType":5126,
			"count":6,
			"type":"VEC3"
		},
		{
			"bufferView":46,
			"componentType":5126,
			"count":6,
			"type":"VEC2"
		},
		{
			"bufferView":47,
			"componentType":5123,
			"count":12,
			"type":"SCALAR"
		}
	],
	"bufferViews":[
		{
			"buffer":0,
			"byteLength":1320,
			"byteOffset":0,
			"target":34962
		},
		{
			"buffer":0,
			"byteLength":1320,
			"byteOffset":1320,
			"target":34962
		},
		{
			"buffer":0,
			"byteLength":880,
			"byteOffset":2640,
			"target":34962
		},
		{
			"buffer":0,
			"byteLength":420,
			"byteOffset":3520,
			"target":34963
		},
		{
			"buffer":0,
			"byteLength":7692,
			"byteOffset":3940,
			"target":34962
		},
		{
			"buffer":0,
			"byteLength":7692,
			"byteOffset":11632,
			"target":34962
		},
		{
			"buffer":0,
			"byteLength":5128,
			"byteOffset":19324,
			"target":34962
		},
		{
			"buffer":0,
			"byteLength":2880,
			"byteOffset":24452,
			"target":34963
		},
		{
			"buffer":0,
			"byteLength":13392,
			"byteOffset":27332,
			"target":34962
		},
		{
			"buffer":0,
			"byteLength":13392,
			"byteOffset":40724,
			"target":34962
		},
		{
			"buffer":0,
			"byteLength":8928,
			"byteOffset":54116,
			"target":34962
		},
		{
			"buffer":0,
			"byteLength":3732,
			"byteOffset":63044,
			"target":34963
		},
		{
			"buffer":0,
			"byteLength":12924,
			"byteOffset":66776,
			"target":34962
		},
		{
			"buffer":0,
			"byteLength":12924,
			"byteOffset":79700,
			"target":34962
		},
		{
			"buffer":0,
			"byteLength":8616,
			"byteOffset":92624,
			"target":34962
		},
		{
			"buffer":0,
			"byteLength":4104,
			"byteOffset":101240,
			"target":34963
		},
		{
			"buffer":0,
			"byteLength":1008,
			"byteOffset":105344,
			"target":34962
		},
		{
			"buffer":0,
			"byteLength":1008,
			"byteOffset":106352,
			"target":34962
		},
		{
			"buffer":0,
			"byteLength":672,
			"byteOffset":107360,
			"target":34962
		},
		{
			"buffer":0,
			"byteLength":252,
			"byteOffset":108032,
			"target":34963
		},
		{
			"buffer":0,
			"byteLength":16416,
			"byteOffset":108284,
			"target":34962
		},
		{
			"buffer":0,
			"byteLength":16416,
			"byteOffset":124700,
			"target":34962
		},
		{
			"buffer":0,
			"byteLength":10944,
			"byteOffset":141116,
			"target":34962
		},
		{
			"buffer":0,
			"byteLength":4752,
			"byteOffset":152060,
			"target":34963
		},
		{
			"buffer":0,
			"byteLength":32184,
			"byteOffset":156812,
			"target":34962
		},
		{
			"buffer":0,
			"byteLength":32184,
			"byteOffset":188996,
			"target":34962
		},
		{
			"buffer":0,
			"byteLength":21456,
			"byteOffset":221180,
			"target":34962
		},
		{
			"buffer":0,
			"byteLength":10350,
			"byteOffset":242636,
			"target":34963
		},
		{
			"buffer":0,
			"byteLength":3552,
			"byteOffset":252988,
			"target":34962
		},
		{
			"buffer":0,
			"byteLength":3552,
			"byteOffset":256540,
			"target":34962
		},
		{
			"buffer":0,
			"byteLength":2368,
			"byteOffset":260092,
			"target":34962
		},
		{
			"buffer":0,
			"byteLength":888,
			"byteOffset":262460,
			"target":34963
		},
		{
			"buffer":0,
			"byteLength":696,
			"byteOffset":263348,
			"target":34962
		},
		{
			"buffer":0,
			"byteLength":696,
			"byteOffset":264044,
			"target":34962
		},
		{
			"buffer":0,
			"byteLength":464,
			"byteOffset":264740,
			"target":34962
		},
		{
			"buffer":0,
			"byteLength":228,
			"byteOffset":265204,
			"target":34963
		},
		{
			"buffer":0,
			"byteLength":17880,
			"byteOffset":265432,
			"target":34962
		},
		{
			"buffer":0,
			"byteLength":17880,
			"byteOffset":283312,
			"target":34962
		},
		{
			"buffer":0,
			"byteLength":11920,
			"byteOffset":301192,
			"target":34962
		},
		{
			"buffer":0,
			"byteLength":4752,
			"byteOffset":313112,
			"target":34963
		},
		{
			"buffer":0,
			"byteLength":12528,
			"byteOffset":317864,
			"target":34962
		},
		{
			"buffer":0,
			"byteLength":12528,
			"byteOffset":330392,
			"target":34962
		},
		{
			"buffer":0,
			"byteLength":8352,
			"byteOffset":342920,
			"target":34962
		},
		{
			"buffer":0,
			"byteLength":3168,
			"byteOffset":351272,
			"target":34963
		},
		{
			"buffer":0,
			"byteLength":72,
			"byteOffset":354440,
			"target":34962
		},
		{
			"buffer":0,
			"byteLength":72,
			"byteOffset":354512,
			"target":34962
		},
		{
			"buffer":0,
			"byteLength":48,
			"byteOffset":354584,
			"target":34962
		},
		{
			"buffer":0,
			"byteLength":24,
			"byteOffset":354632,
			"target":34963
		}
	],
	"samplers":[
		{
			"magFilter":9729,
			"minFilter":9987
		}
	],
	"buffers":[
		{
			"byteLength":354656,
			"uri":"room.bin"
		}
	]
}
