{
	"asset":{
		"generator":"Khronos glTF Blender I/O v4.3.47",
		"version":"2.0"
	},
	"extensionsUsed":[
		"KHR_materials_specular"
	],
	"scene":0,
	"scenes":[
		{
			"name":"Scene",
			"nodes":[
				0,
				1,
				2,
				3,
				4,
				5,
				6
			]
		}
	],
	"nodes":[
		{
			"mesh":0,
			"name":"Room"
		},
		{
			"mesh":1,
			"name":"Furniture"
		},
		{
			"mesh":2,
			"name":"Items1"
		},
		{
			"mesh":3,
			"name":"Plane"
		},
		{
			"mesh":4,
			"name":"Plane.001"
		},
		{
			"extras":{
				"is_interactable":"1.0"
			},
			"mesh":5,
			"name":"Cube"
		},
		{
			"extras":{
				"is_walkable_area":"1.0"
			},
			"mesh":6,
			"name":"Plane.002"
		}
	],
	"materials":[
		{
			"alphaMode":"BLEND",
			"doubleSided":true,
			"extensions":{
				"KHR_materials_specular":{
					"specularFactor":0
				}
			},
			"name":"WallsRoofFloorExtras.001",
			"pbrMetallicRoughness":{
				"baseColorTexture":{
					"index":0
				},
				"metallicFactor":0,
				"roughnessFactor":0.4000000059604645
			}
		},
		{
			"doubleSided":true,
			"name":"Cabet_Table.001",
			"pbrMetallicRoughness":{
				"baseColorTexture":{
					"index":1
				},
				"metallicFactor":0,
				"roughnessFactor":0.5
			}
		},
		{
			"alphaMode":"BLEND",
			"doubleSided":true,
			"extensions":{
				"KHR_materials_specular":{
					"specularFactor":0
				}
			},
			"name":"LivingRoom.001",
			"pbrMetallicRoughness":{
				"baseColorTexture":{
					"index":2
				},
				"metallicFactor":0,
				"roughnessFactor":0
			}
		},
		{
			"alphaMode":"BLEND",
			"doubleSided":true,
			"extensions":{
				"KHR_materials_specular":{
					"specularFactor":0
				}
			},
			"name":"LivingRoom.Alt.001",
			"pbrMetallicRoughness":{
				"baseColorTexture":{
					"index":3
				},
				"metallicFactor":0,
				"roughnessFactor":0
			}
		},
		{
			"alphaMode":"BLEND",
			"doubleSided":true,
			"extensions":{
				"KHR_materials_specular":{
					"specularFactor":0
				}
			},
			"name":"LivingRoomLamp.001",
			"pbrMetallicRoughness":{
				"baseColorTexture":{
					"index":4
				},
				"metallicFactor":0,
				"roughnessFactor":0
			}
		},
		{
			"alphaMode":"BLEND",
			"doubleSided":true,
			"extensions":{
				"KHR_materials_specular":{
					"specularFactor":0
				}
			},
			"name":"Chair.001",
			"pbrMetallicRoughness":{
				"baseColorTexture":{
					"index":5
				},
				"metallicFactor":0,
				"roughnessFactor":0.5
			}
		},
		{
			"alphaMode":"BLEND",
			"doubleSided":true,
			"extensions":{
				"KHR_materials_specular":{
					"specularFactor":0
				}
			},
			"name":"Table Stuff.001",
			"pbrMetallicRoughness":{
				"baseColorTexture":{
					"index":6
				},
				"metallicFactor":0,
				"roughnessFactor":0.5
			}
		},
		{
			"alphaMode":"BLEND",
			"doubleSided":true,
			"extensions":{
				"KHR_materials_specular":{
					"specularFactor":0
				}
			},
			"name":"OldLady.001",
			"pbrMetallicRoughness":{
				"baseColorTexture":{
					"index":7
				},
				"metallicFactor":0,
				"roughnessFactor":0
			}
		}
	],
	"meshes":[
		{
			"name":"Cube",
			"primitives":[
				{
					"attributes":{
						"POSITION":0,
						"NORMAL":1,
						"TEXCOORD_0":2
					},
					"indices":3,
					"material":0
				}
			]
		},
		{
			"name":"Cube.003",
			"primitives":[
				{
					"attributes":{
						"POSITION":4,
						"NORMAL":5,
						"TEXCOORD_0":6
					},
					"indices":7,
					"material":1
				},
				{
					"attributes":{
						"POSITION":8,
						"NORMAL":9,
						"TEXCOORD_0":10
					},
					"indices":11,
					"material":2
				},
				{
					"attributes":{
						"POSITION":12,
						"NORMAL":13,
						"TEXCOORD_0":14
					},
					"indices":15,
					"material":3
				},
				{
					"attributes":{
						"POSITION":16,
						"NORMAL":17,
						"TEXCOORD_0":18
					},
					"indices":19,
					"material":4
				},
				{
					"attributes":{
						"POSITION":20,
						"NORMAL":21,
						"TEXCOORD_0":22
					},
					"indices":23,
					"material":5
				}
			]
		},
		{
			"name":"Plane.002",
			"primitives":[
				{
					"attributes":{
						"POSITION":24,
						"NORMAL":25,
						"TEXCOORD_0":26
					},
					"indices":27,
					"material":0
				},
				{
					"attributes":{
						"POSITION":28,
						"NORMAL":29,
						"TEXCOORD_0":30
					},
					"indices":31,
					"material":2
				},
				{
					"attributes":{
						"POSITION":32,
						"NORMAL":33,
						"TEXCOORD_0":34
					},
					"indices":35,
					"material":3
				},
				{
					"attributes":{
						"POSITION":36,
						"NORMAL":37,
						"TEXCOORD_0":38
					},
					"indices":39,
					"material":6
				}
			]
		},
		{
			"name":"Plane.005",
			"primitives":[
				{
					"attributes":{
						"POSITION":40,
						"NORMAL":41,
						"TEXCOORD_0":42
					},
					"indices":43,
					"material":7
				}
			]
		},
		{
			"name":"Plane.006",
			"primitives":[
				{
					"attributes":{
						"POSITION":44,
						"NORMAL":45,
						"TEXCOORD_0":46
					},
					"indices":47,
					"material":7
				}
			]
		},
		{
			"name":"Cube.001",
			"primitives":[
				{
					"attributes":{
						"POSITION":48,
						"NORMAL":49,
						"TEXCOORD_0":50
					},
					"indices":51,
					"material":6
				}
			]
		},
		{
			"name":"Plane",
			"primitives":[
				{
					"attributes":{
						"POSITION":52,
						"NORMAL":53,
						"TEXCOORD_0":54
					},
					"indices":55
				}
			]
		}
	],
	"textures":[
		{
			"sampler":0,
			"source":0
		},
		{
			"sampler":0,
			"source":1
		},
		{
			"sampler":0,
			"source":2
		},
		{
			"sampler":0,
			"source":2
		},
		{
			"sampler":0,
			"source":2
		},
		{
			"sampler":0,
			"source":3
		},
		{
			"sampler":0,
			"source":4
		},
		{
			"sampler":0,
			"source":5
		}
	],
	"images":[
		{
			"mimeType":"image/png",
			"name":"WallsFloorRoofExtras",
			"uri":"WallsFloorRoofExtras.png"
		},
		{
			"mimeType":"image/png",
			"name":"Table_Cabet_tex",
			"uri":"Table_Cabet_tex.png"
		},
		{
			"mimeType":"image/png",
			"name":"LivingRoom",
			"uri":"LivingRoom.png"
		},
		{
			"mimeType":"image/png",
			"name":"Chair",
			"uri":"Chair.png"
		},
		{
			"mimeType":"image/png",
			"name":"TableStuff",
			"uri":"TableStuff.png"
		},
		{
			"mimeType":"image/png",
			"name":"OldLady_Texture",
			"uri":"OldLady_Texture.png"
		}
	],
	"accessors":[
		{
			"bufferView":0,
			"componentType":5126,
			"count":110,
			"max":[
				1.7350490093231201,
				2.3985228538513184,
				6.089099884033203
			],
			"min":[
				-3.610813856124878,
				0.007963061332702637,
				-1.284091591835022
			],
			"type":"VEC3"
		},
		{
			"bufferView":1,
			"componentType":5126,
			"count":110,
			"type":"VEC3"
		},
		{
			"bufferView":2,
			"componentType":5126,
			"count":110,
			"type":"VEC2"
		},
		{
			"bufferView":3,
			"componentType":5123,
			"count":210,
			"type":"SCALAR"
		},
		{
			"bufferView":4,
			"componentType":5126,
			"count":641,
			"max":[
				0.5256563425064087,
				0.6328189373016357,
				1.0751917362213135
			],
			"min":[
				-0.28513047099113464,
				0.007997125387191772,
				-0.3122602701187134
			],
			"type":"VEC3"
		},
		{
			"bufferView":5,
			"componentType":5126,
			"count":641,
			"type":"VEC3"
		},
		{
			"bufferView":6,
			"componentType":5126,
			"count":641,
			"type":"VEC2"
		},
		{
			"bufferView":7,
			"componentType":5123,
			"count":1440,
			"type":"SCALAR"
		},
		{
			"bufferView":8,
			"componentType":5126,
			"count":1116,
			"max":[
				1.7464416027069092,
				2.226196527481079,
				6.135390281677246
			],
			"min":[
				-2.0399956703186035,
				-0.014397233724594116,
				-1.2849384546279907
			],
			"type":"VEC3"
		},
		{
			"bufferView":9,
			"componentType":5126,
			"count":1116,
			"type":"VEC3"
		},
		{
			"bufferView":10,
			"componentType":5126,
			"count":1116,
			"type":"VEC2"
		},
		{
			"bufferView":11,
			"componentType":5123,
			"count":1866,
			"type":"SCALAR"
		},
		{
			"bufferView":12,
			"componentType":5126,
			"count":1077,
			"max":[
				1.801225185394287,
				2.40447998046875,
				6.135390281677246
			],
			"min":[
				-2.07503342628479,
				-0.07640853524208069,
				-1.2178477048873901
			],
			"type":"VEC3"
		},
		{
			"bufferView":13,
			"componentType":5126,
			"count":1077,
			"type":"VEC3"
		},
		{
			"bufferView":14,
			"componentType":5126,
			"count":1077,
			"type":"VEC2"
		},
		{
			"bufferView":15,
			"componentType":5123,
			"count":2052,
			"type":"SCALAR"
		},
		{
			"bufferView":16,
			"componentType":5126,
			"count":84,
			"max":[
				0.2534879744052887,
				2.423482894897461,
				0.47658050060272217
			],
			"min":[
				-0.007438501343131065,
				1.7214056253433228,
				0.2178584337234497
			],
			"type":"VEC3"
		},
		{
			"bufferView":17,
			"componentType":5126,
			"count":84,
			"type":"VEC3"
		},
		{
			"bufferView":18,
			"componentType":5126,
			"count":84,
			"type":"VEC2"
		},
		{
			"bufferView":19,
			"componentType":5123,
			"count":126,
			"type":"SCALAR"
		},
		{
			"bufferView":20,
			"componentType":5126,
			"count":1368,
			"max":[
				0.7410404682159424,
				0.7587514519691467,
				1.3844778537750244
			],
			"min":[
				-0.535379946231842,
				0.012929558753967285,
				-0.523479700088501
			],
			"type":"VEC3"
		},
		{
			"bufferView":21,
			"componentType":5126,
			"count":1368,
			"type":"VEC3"
		},
		{
			"bufferView":22,
			"componentType":5126,
			"count":1368,
			"type":"VEC2"
		},
		{
			"bufferView":23,
			"componentType":5123,
			"count":2376,
			"type":"SCALAR"
		},
		{
			"bufferView":24,
			"componentType":5126,
			"count":2682,
			"max":[
				1.7652955055236816,
				2.307403087615967,
				6.160501003265381
			],
			"min":[
				-2.050161600112915,
				0.002794027328491211,
				-1.3063044548034668
			],
			"type":"VEC3"
		},
		{
			"bufferView":25,
			"componentType":5126,
			"count":2682,
			"type":"VEC3"
		},
		{
			"bufferView":26,
			"componentType":5126,
			"count":2682,
			"type":"VEC2"
		},
		{
			"bufferView":27,
			"componentType":5123,
			"count":5175,
			"type":"SCALAR"
		},
		{
			"bufferView":28,
			"componentType":5126,
			"count":296,
			"max":[
				-0.6101863980293274,
				1.0526525974273682,
				6.102613925933838
			],
			"min":[
				-3.5197882652282715,
				0.017764508724212646,
				3.3379077911376953
			],
			"type":"VEC3"
		},
		{
			"bufferView":29,
			"componentType":5126,
			"count":296,
			"type":"VEC3"
		},
		{
			"bufferView":30,
			"componentType":5126,
			"count":296,
			"type":"VEC2"
		},
		{
			"bufferView":31,
			"componentType":5123,
			"count":444,
			"type":"SCALAR"
		},
		{
			"bufferView":32,
			"componentType":5126,
			"count":58,
			"max":[
				-0.1543346345424652,
				0.9691689014434814,
				4.801826000213623
			],
			"min":[
				-1.9316492080688477,
				0.7976096272468567,
				0.2940478026866913
			],
			"type":"VEC3"
		},
		{
			"bufferView":33,
			"componentType":5126,
			"count":58,
			"type":"VEC3"
		},
		{
			"bufferView":34,
			"componentType":5126,
			"count":58,
			"type":"VEC2"
		},
		{
			"bufferView":35,
			"componentType":5123,
			"count":114,
			"type":"SCALAR"
		},
		{
			"bufferView":36,
			"componentType":5126,
			"count":1490,
			"max":[
				1.6501500606536865,
				0.9159839153289795,
				5.975307464599609
			],
			"min":[
				-1.885166883468628,
				0.632818877696991,
				-0.01921960711479187
			],
			"type":"VEC3"
		},
		{
			"bufferView":37,
			"componentType":5126,
			"count":1490,
			"type":"VEC3"
		},
		{
			"bufferView":38,
			"componentType":5126,
			"count":1490,
			"type":"VEC2"
		},
		{
			"bufferView":39,
			"componentType":5123,
			"count":2376,
			"type":"SCALAR"
		},
		{
			"bufferView":40,
			"componentType":5126,
			"count":1044,
			"max":[
				-2.9953136444091797,
				1.6051427125930786,
				3.106152296066284
			],
			"min":[
				-3.5951128005981445,
				0.004795774817466736,
				2.453338861465454
			],
			"type":"VEC3"
		},
		{
			"bufferView":41,
			"componentType":5126,
			"count":1044,
			"type":"VEC3"
		},
		{
			"bufferView":42,
			"componentType":5126,
			"count":1044,
			"type":"VEC2"
		},
		{
			"bufferView":43,
			"componentType":5123,
			"count":1584,
			"type":"SCALAR"
		},
		{
			"bufferView":44,
			"componentType":5126,
			"count":6,
			"max":[
				-2.6928486824035645,
				0.8547703623771667,
				3.132026195526123
			],
			"min":[
				-3.3915939331054688,
				0.33919090032577515,
				3.043670177459717
			],
			"type":"VEC3"
		},
		{
			"bufferView":45,
			"componentType":5126,
			"count":6,
			"type":"VEC3"
		},
		{
			"bufferView":46,
			"componentType":5126,
			"count":6,
			"type":"VEC2"
		},
		{
			"bufferView":47,
			"componentType":5123,
			"count":12,
			"type":"SCALAR"
		},
		{
			"bufferView":48,
			"componentType":5126,
			"count":24,
			"max":[
				0.7722434997558594,
				2.059635877609253,
				4.841421127319336
			],
			"min":[
				-1.2277565002441406,
				0.05963587760925293,
				2.841421127319336
			],
			"type":"VEC3"
		},
		{
			"bufferView":49,
			"componentType":5126,
			"count":24,
			"type":"VEC3"
		},
		{
			"bufferView":50,
			"componentType":5126,
			"count":24,
			"type":"VEC2"
		},
		{
			"bufferView":51,
			"componentType":5123,
			"count":36,
			"type":"SCALAR"
		},
		{
			"bufferView":52,
			"componentType":5126,
			"count":25,
			"max":[
				1.2944188117980957,
				0,
				5.505480766296387
			],
			"min":[
				-2,
				0,
				-1.036187767982483
			],
			"type":"VEC3"
		},
		{
			"bufferView":53,
			"componentType":5126,
			"count":25,
			"type":"VEC3"
		},
		{
			"bufferView":54,
			"componentType":5126,
			"count":25,
			"type":"VEC2"
		},
		{
			"bufferView":55,
			"componentType":5123,
			"count":57,
			"type":"SCALAR"
		}
	],
	"bufferViews":[
		{
			"buffer":0,
			"byteLength":1320,
			"byteOffset":0,
			"target":34962
		},
		{
			"buffer":0,
			"byteLength":1320,
			"byteOffset":1320,
			"target":34962
		},
		{
			"buffer":0,
			"byteLength":880,
			"byteOffset":2640,
			"target":34962
		},
		{
			"buffer":0,
			"byteLength":420,
			"byteOffset":3520,
			"target":34963
		},
		{
			"buffer":0,
			"byteLength":7692,
			"byteOffset":3940,
			"target":34962
		},
		{
			"buffer":0,
			"byteLength":7692,
			"byteOffset":11632,
			"target":34962
		},
		{
			"buffer":0,
			"byteLength":5128,
			"byteOffset":19324,
			"target":34962
		},
		{
			"buffer":0,
			"byteLength":2880,
			"byteOffset":24452,
			"target":34963
		},
		{
			"buffer":0,
			"byteLength":13392,
			"byteOffset":27332,
			"target":34962
		},
		{
			"buffer":0,
			"byteLength":13392,
			"byteOffset":40724,
			"target":34962
		},
		{
			"buffer":0,
			"byteLength":8928,
			"byteOffset":54116,
			"target":34962
		},
		{
			"buffer":0,
			"byteLength":3732,
			"byteOffset":63044,
			"target":34963
		},
		{
			"buffer":0,
			"byteLength":12924,
			"byteOffset":66776,
			"target":34962
		},
		{
			"buffer":0,
			"byteLength":12924,
			"byteOffset":79700,
			"target":34962
		},
		{
			"buffer":0,
			"byteLength":8616,
			"byteOffset":92624,
			"target":34962
		},
		{
			"buffer":0,
			"byteLength":4104,
			"byteOffset":101240,
			"target":34963
		},
		{
			"buffer":0,
			"byteLength":1008,
			"byteOffset":105344,
			"target":34962
		},
		{
			"buffer":0,
			"byteLength":1008,
			"byteOffset":106352,
			"target":34962
		},
		{
			"buffer":0,
			"byteLength":672,
			"byteOffset":107360,
			"target":34962
		},
		{
			"buffer":0,
			"byteLength":252,
			"byteOffset":108032,
			"target":34963
		},
		{
			"buffer":0,
			"byteLength":16416,
			"byteOffset":108284,
			"target":34962
		},
		{
			"buffer":0,
			"byteLength":16416,
			"byteOffset":124700,
			"target":34962
		},
		{
			"buffer":0,
			"byteLength":10944,
			"byteOffset":141116,
			"target":34962
		},
		{
			"buffer":0,
			"byteLength":4752,
			"byteOffset":152060,
			"target":34963
		},
		{
			"buffer":0,
			"byteLength":32184,
			"byteOffset":156812,
			"target":34962
		},
		{
			"buffer":0,
			"byteLength":32184,
			"byteOffset":188996,
			"target":34962
		},
		{
			"buffer":0,
			"byteLength":21456,
			"byteOffset":221180,
			"target":34962
		},
		{
			"buffer":0,
			"byteLength":10350,
			"byteOffset":242636,
			"target":34963
		},
		{
			"buffer":0,
			"byteLength":3552,
			"byteOffset":252988,
			"target":34962
		},
		{
			"buffer":0,
			"byteLength":3552,
			"byteOffset":256540,
			"target":34962
		},
		{
			"buffer":0,
			"byteLength":2368,
			"byteOffset":260092,
			"target":34962
		},
		{
			"buffer":0,
			"byteLength":888,
			"byteOffset":262460,
			"target":34963
		},
		{
			"buffer":0,
			"byteLength":696,
			"byteOffset":263348,
			"target":34962
		},
		{
			"buffer":0,
			"byteLength":696,
			"byteOffset":264044,
			"target":34962
		},
		{
			"buffer":0,
			"byteLength":464,
			"byteOffset":264740,
			"target":34962
		},
		{
			"buffer":0,
			"byteLength":228,
			"byteOffset":265204,
			"target":34963
		},
		{
			"buffer":0,
			"byteLength":17880,
			"byteOffset":265432,
			"target":34962
		},
		{
			"buffer":0,
			"byteLength":17880,
			"byteOffset":283312,
			"target":34962
		},
		{
			"buffer":0,
			"byteLength":11920,
			"byteOffset":301192,
			"target":34962
		},
		{
			"buffer":0,
			"byteLength":4752,
			"byteOffset":313112,
			"target":34963
		},
		{
			"buffer":0,
			"byteLength":12528,
			"byteOffset":317864,
			"target":34962
		},
		{
			"buffer":0,
			"byteLength":12528,
			"byteOffset":330392,
			"target":34962
		},
		{
			"buffer":0,
			"byteLength":8352,
			"byteOffset":342920,
			"target":34962
		},
		{
			"buffer":0,
			"byteLength":3168,
			"byteOffset":351272,
			"target":34963
		},
		{
			"buffer":0,
			"byteLength":72,
			"byteOffset":354440,
			"target":34962
		},
		{
			"buffer":0,
			"byteLength":72,
			"byteOffset":354512,
			"target":34962
		},
		{
			"buffer":0,
			"byteLength":48,
			"byteOffset":354584,
			"target":34962
		},
		{
			"buffer":0,
			"byteLength":24,
			"byteOffset":354632,
			"target":34963
		},
		{
			"buffer":0,
			"byteLength":288,
			"byteOffset":354656,
			"target":34962
		},
		{
			"buffer":0,
			"byteLength":288,
			"byteOffset":354944,
			"target":34962
		},
		{
			"buffer":0,
			"byteLength":192,
			"byteOffset":355232,
			"target":34962
		},
		{
			"buffer":0,
			"byteLength":72,
			"byteOffset":355424,
			"target":34963
		},
		{
			"buffer":0,
			"byteLength":300,
			"byteOffset":355496,
			"target":34962
		},
		{
			"buffer":0,
			"byteLength":300,
			"byteOffset":355796,
			"target":34962
		},
		{
			"buffer":0,
			"byteLength":200,
			"byteOffset":356096,
			"target":34962
		},
		{
			"buffer":0,
			"byteLength":114,
			"byteOffset":356296,
			"target":34963
		}
	],
	"samplers":[
		{
			"magFilter":9729,
			"minFilter":9987
		}
	],
	"buffers":[
		{
			"byteLength":356412,
			"uri":"room.bin"
		}
	]
}
