{
	"asset":{
		"generator":"Khronos glTF Blender I/O v4.3.47",
		"version":"2.0"
	},
	"scene":0,
	"scenes":[
		{
			"name":"Scene",
			"nodes":[
				0
			]
		}
	],
	"nodes":[
		{
			"mesh":0,
			"name":"boy.001",
			"rotation":[
				-0.70710688829422,
				0,
				0,
				0.7071066498756409
			]
		}
	],
	"materials":[
		{
			"doubleSided":true,
			"name":"Scene_-_Root.005"
		}
	],
	"meshes":[
		{
			"name":"Object_0.005",
			"primitives":[
				{
					"attributes":{
						"POSITION":0,
						"NORMAL":1,
						"TEXCOORD_0":2
					},
					"indices":3,
					"material":0
				}
			]
		}
	],
	"accessors":[
		{
			"bufferView":0,
			"componentType":5126,
			"count":835,
			"max":[
				0.9139492511749268,
				0.17594881355762482,
				1.684535026550293
			],
			"min":[
				-0.9139492511749268,
				-0.2777712345123291,
				-5.364418029785156e-07
			],
			"type":"VEC3"
		},
		{
			"bufferView":1,
			"componentType":5126,
			"count":835,
			"type":"VEC3"
		},
		{
			"bufferView":2,
			"componentType":5126,
			"count":835,
			"type":"VEC2"
		},
		{
			"bufferView":3,
			"componentType":5123,
			"count":1260,
			"type":"SCALAR"
		}
	],
	"bufferViews":[
		{
			"buffer":0,
			"byteLength":10020,
			"byteOffset":0,
			"target":34962
		},
		{
			"buffer":0,
			"byteLength":10020,
			"byteOffset":10020,
			"target":34962
		},
		{
			"buffer":0,
			"byteLength":6680,
			"byteOffset":20040,
			"target":34962
		},
		{
			"buffer":0,
			"byteLength":2520,
			"byteOffset":26720,
			"target":34963
		}
	],
	"buffers":[
		{
			"byteLength":29240,
			"uri":"hotel_owner.bin"
		}
	]
}
